 <svg width="860" height="852" viewBox="0 0 860 852" preserveAspectRatio="xMidYMid meet" xmlns="http://www.w3.org/2000/svg" style="background-color: #1f2937; color: #e5e7eb; font-family: sans-serif; max-width: 100%; height: auto;"><title>BTC/JPY 1day chart</title><style>.u{fill:#16a34a}.d{fill:#ef4444}.w{stroke:#9ca3af;stroke-width:1}</style><defs><clipPath id="plotArea"><rect x="96" y="36" width="752" height="352"/></clipPath></defs><g class="axes"><line x1="96" y1="36" x2="96" y2="388" stroke="#4b5563" stroke-width="1"/><g font-size="12" fill="#9ca3af"><text x="88" y="388" text-anchor="end" dominant-baseline="middle">9,000,000</text><text x="88" y="337.7" text-anchor="end" dominant-baseline="middle">10,000,000</text><text x="88" y="287.4" text-anchor="end" dominant-baseline="middle">11,000,000</text><text x="88" y="237.1" text-anchor="end" dominant-baseline="middle">12,000,000</text><text x="88" y="186.9" text-anchor="end" dominant-baseline="middle">13,000,000</text><text x="88" y="136.6" text-anchor="end" dominant-baseline="middle">14,000,000</text><text x="88" y="86.3" text-anchor="end" dominant-baseline="middle">15,000,000</text><text x="88" y="36" text-anchor="end" dominant-baseline="middle">16,000,000</text></g><line x1="96" y1="388" x2="848" y2="388" stroke="#4b5563" stroke-width="1"/><line x1="96" y1="820" x2="848" y2="820" stroke="#4b5563" stroke-width="1"/><g font-size="12" fill="#9ca3af"><text x="102.3" y="836" text-anchor="middle" fill="#9ca3af" font-size="10">1/3</text><text x="252.7" y="836" text-anchor="middle" fill="#9ca3af" font-size="10">1/15</text><text x="403.1" y="836" text-anchor="middle" fill="#9ca3af" font-size="10">1/27</text><text x="553.5" y="836" text-anchor="middle" fill="#9ca3af" font-size="10">2/8</text><text x="703.9" y="836" text-anchor="middle" fill="#9ca3af" font-size="10">2/20</text></g></g><g class="plot-area" clip-path="url(#plotArea)"><line x1="102.3" y1="129.3" x2="102.3" y2="138.4" class="w"/><line x1="114.8" y1="119.3" x2="114.8" y2="129.5" class="w"/><line x1="127.3" y1="96.3" x2="127.3" y2="120.6" class="w"/><line x1="139.9" y1="97.4" x2="139.9" y2="120.5" class="w"/><line x1="152.4" y1="101.4" x2="152.4" y2="125.8" class="w"/><line x1="164.9" y1="117.6" x2="164.9" y2="135" class="w"/><line x1="177.5" y1="108.9" x2="177.5" y2="128.5" class="w"/><line x1="190" y1="119.1" x2="190" y2="121.5" class="w"/><line x1="202.5" y1="115.8" x2="202.5" y2="122.7" class="w"/><line x1="215.1" y1="105.7" x2="215.1" y2="125.3" class="w"/><line x1="227.6" y1="72.7" x2="227.6" y2="116.4" class="w"/><line x1="240.1" y1="60.1" x2="240.1" y2="85.6" class="w"/><line x1="252.7" y1="63.5" x2="252.7" y2="80.6" class="w"/><line x1="265.2" y1="74.8" x2="265.2" y2="89.7" class="w"/><line x1="277.7" y1="78.8" x2="277.7" y2="83" class="w"/><line x1="290.3" y1="81.3" x2="290.3" y2="97.3" class="w"/><line x1="302.8" y1="96.9" x2="302.8" y2="109.5" class="w"/><line x1="315.3" y1="101.7" x2="315.3" y2="141.5" class="w"/><line x1="327.9" y1="119.6" x2="327.9" y2="145.5" class="w"/><line x1="340.4" y1="119" x2="340.4" y2="135" class="w"/><line x1="352.9" y1="121.9" x2="352.9" y2="139.6" class="w"/><line x1="365.5" y1="135.5" x2="365.5" y2="141.1" class="w"/><line x1="378" y1="140.4" x2="378" y2="170.8" class="w"/><line x1="390.5" y1="151.6" x2="390.5" y2="166.3" class="w"/><line x1="403.1" y1="149.3" x2="403.1" y2="169.6" class="w"/><line x1="415.6" y1="141.2" x2="415.6" y2="158.4" class="w"/><line x1="428.1" y1="152.2" x2="428.1" y2="197.6" class="w"/><line x1="440.7" y1="182.5" x2="440.7" y2="212" class="w"/><line x1="453.2" y1="183.8" x2="453.2" y2="244.7" class="w"/><line x1="465.7" y1="220.8" x2="465.7" y2="248.2" class="w"/><line x1="478.3" y1="219" x2="478.3" y2="258.1" class="w"/><line x1="490.8" y1="212" x2="490.8" y2="267.4" class="w"/><line x1="503.3" y1="235.2" x2="503.3" y2="273.3" class="w"/><line x1="515.9" y1="261.8" x2="515.9" y2="347" class="w"/><line x1="528.4" y1="272.3" x2="528.4" y2="367.9" class="w"/><line x1="540.9" y1="272.9" x2="540.9" y2="307.3" class="w"/><line x1="553.5" y1="266.8" x2="553.5" y2="295" class="w"/><line x1="566" y1="276.7" x2="566" y2="305.5" class="w"/><line x1="578.5" y1="287.4" x2="578.5" y2="313.3" class="w"/><line x1="591.1" y1="302.6" x2="591.1" y2="332.8" class="w"/><line x1="603.6" y1="312.5" x2="603.6" y2="339.1" class="w"/><line x1="616.1" y1="305.7" x2="616.1" y2="333.6" class="w"/><line x1="628.7" y1="297.3" x2="628.7" y2="311.7" class="w"/><line x1="641.2" y1="294.3" x2="641.2" y2="317.1" class="w"/><line x1="653.7" y1="298.9" x2="653.7" y2="320.6" class="w"/><line x1="666.3" y1="306.7" x2="666.3" y2="325.1" class="w"/><line x1="678.8" y1="309.6" x2="678.8" y2="326.7" class="w"/><line x1="691.3" y1="314.8" x2="691.3" y2="327.6" class="w"/><line x1="703.9" y1="302.5" x2="703.9" y2="321.1" class="w"/><line x1="716.4" y1="304.3" x2="716.4" y2="312.6" class="w"/><line x1="728.9" y1="307.8" x2="728.9" y2="316" class="w"/><line x1="741.5" y1="314.4" x2="741.5" y2="342.7" class="w"/><line x1="754" y1="333.2" x2="754" y2="350.2" class="w"/><line x1="766.5" y1="288.9" x2="766.5" y2="338.7" class="w"/><line x1="779.1" y1="299.6" x2="779.1" y2="317.7" class="w"/><line x1="791.6" y1="304.1" x2="791.6" y2="330.2" class="w"/><line x1="804.1" y1="307.5" x2="804.1" y2="343.7" class="w"/><line x1="816.7" y1="304.9" x2="816.7" y2="329.3" class="w"/><line x1="829.2" y1="286.6" x2="829.2" y2="323.1" class="w"/><line x1="841.7" y1="293.5" x2="841.7" y2="304.5" class="w"/><rect x="98.2" y="129.5" width="8.3" height="4.6" class="u"/><rect x="110.7" y="120.7" width="8.3" height="8.8" class="u"/><rect x="123.2" y="100.9" width="8.3" height="19.7" class="u"/><rect x="135.8" y="100.9" width="8.3" height="1" class="d"/><rect x="148.3" y="101.4" width="8.3" height="18.8" class="d"/><rect x="160.8" y="120.2" width="8.3" height="1.3" class="d"/><rect x="173.4" y="120.3" width="8.3" height="1.2" class="u"/><rect x="185.9" y="120.3" width="8.3" height="1" class="d"/><rect x="198.4" y="117" width="8.3" height="4.1" class="u"/><rect x="211" y="116.4" width="8.3" height="1" class="u"/><rect x="223.5" y="78.3" width="8.3" height="38.1" class="u"/><rect x="236" y="68" width="8.3" height="10.1" class="u"/><rect x="248.6" y="68" width="8.3" height="8.1" class="d"/><rect x="261.1" y="76.1" width="8.3" height="3.7" class="d"/><rect x="273.6" y="79.8" width="8.3" height="2.9" class="d"/><rect x="286.2" y="82.7" width="8.3" height="14.2" class="d"/><rect x="298.7" y="96.9" width="8.3" height="6.3" class="d"/><rect x="311.2" y="103.2" width="8.3" height="34.4" class="d"/><rect x="323.8" y="127.8" width="8.3" height="9.8" class="u"/><rect x="336.3" y="127.5" width="8.3" height="1" class="u"/><rect x="348.8" y="127.5" width="8.3" height="10.6" class="d"/><rect x="361.4" y="138.1" width="8.3" height="2.6" class="d"/><rect x="373.9" y="140.7" width="8.3" height="23" class="d"/><rect x="386.4" y="154.8" width="8.3" height="8.9" class="u"/><rect x="399" y="154.8" width="8.3" height="1.4" class="d"/><rect x="411.5" y="152.9" width="8.3" height="3.3" class="u"/><rect x="424" y="152.9" width="8.3" height="34.5" class="d"/><rect x="436.6" y="183.8" width="8.3" height="3.6" class="u"/><rect x="449.1" y="183.8" width="8.3" height="42.3" class="d"/><rect x="461.6" y="225.8" width="8.3" height="13.4" class="d"/><rect x="474.2" y="224.3" width="8.3" height="14.9" class="u"/><rect x="486.7" y="224.3" width="8.3" height="22.1" class="d"/><rect x="499.2" y="246.4" width="8.3" height="16.5" class="d"/><rect x="511.8" y="262.9" width="8.3" height="81.4" class="d"/><rect x="524.3" y="281.5" width="8.3" height="62.7" class="u"/><rect x="536.8" y="281.5" width="8.3" height="10.6" class="d"/><rect x="549.4" y="283.2" width="8.3" height="8.9" class="u"/><rect x="561.9" y="283.2" width="8.3" height="6.6" class="d"/><rect x="574.4" y="289.6" width="8.3" height="15.4" class="d"/><rect x="587" y="305" width="8.3" height="18.2" class="d"/><rect x="599.5" y="323.1" width="8.3" height="7.6" class="d"/><rect x="612" y="311.3" width="8.3" height="19.4" class="u"/><rect x="624.6" y="303.7" width="8.3" height="7.6" class="u"/><rect x="637.1" y="303.7" width="8.3" height="6.6" class="d"/><rect x="649.6" y="307.9" width="8.3" height="2.6" class="u"/><rect x="662.2" y="307.9" width="8.3" height="12.2" class="d"/><rect x="674.7" y="320.1" width="8.3" height="2.5" class="d"/><rect x="687.2" y="317.6" width="8.3" height="4.9" class="u"/><rect x="699.8" y="309.3" width="8.3" height="8.3" class="u"/><rect x="712.3" y="309.2" width="8.3" height="1" class="d"/><rect x="724.8" y="309.5" width="8.3" height="5" class="d"/><rect x="737.4" y="314.5" width="8.3" height="22.4" class="d"/><rect x="749.9" y="336.9" width="8.3" height="1" class="d"/><rect x="762.4" y="307.6" width="8.3" height="30.3" class="u"/><rect x="775" y="307.5" width="8.3" height="3.6" class="d"/><rect x="787.5" y="311" width="8.3" height="11" class="d"/><rect x="800" y="313.8" width="8.3" height="8.2" class="u"/><rect x="812.6" y="313.9" width="8.3" height="8.5" class="d"/><rect x="825.1" y="296.6" width="8.3" height="25.5" class="u"/><rect x="837.6" y="296.5" width="8.3" height="7.9" class="d"/></g><g class="legend"><g font-size="12" fill="#e5e7eb"></g></g><g class="sub-panels"><rect x="96" y="412" width="752" height="120" fill="rgba(255,255,255,0.02)"/><line x1="96" y1="412" x2="848" y2="412" stroke="#374151" stroke-width="0.5"/><line x1="96" y1="445.9" x2="848" y2="445.9" stroke="#4b5563" stroke-width="0.5" stroke-dasharray="4 4"/><rect x="99.4" y="440" width="5.8" height="5.899999999999977" fill="rgba(34,197,94,0.6)"/><rect x="111.9" y="438.7" width="5.8" height="7.199999999999989" fill="rgba(34,197,94,0.6)"/><rect x="124.4" y="436.1" width="5.8" height="9.799999999999955" fill="rgba(34,197,94,0.6)"/><rect x="137" y="435" width="5.8" height="10.899999999999977" fill="rgba(34,197,94,0.6)"/><rect x="149.5" y="436.8" width="5.8" height="9.099999999999966" fill="rgba(34,197,94,0.6)"/><rect x="162" y="438.5" width="5.8" height="7.399999999999977" fill="rgba(34,197,94,0.6)"/><rect x="174.6" y="439.8" width="5.8" height="6.099999999999966" fill="rgba(34,197,94,0.6)"/><rect x="187.1" y="441.1" width="5.8" height="4.7999999999999545" fill="rgba(34,197,94,0.6)"/><rect x="199.6" y="441.8" width="5.8" height="4.099999999999966" fill="rgba(34,197,94,0.6)"/><rect x="212.2" y="442.4" width="5.8" height="3.5" fill="rgba(34,197,94,0.6)"/><rect x="224.7" y="439.1" width="5.8" height="6.7999999999999545" fill="rgba(34,197,94,0.6)"/><rect x="237.2" y="436.5" width="5.8" height="9.399999999999977" fill="rgba(34,197,94,0.6)"/><rect x="249.8" y="436.2" width="5.8" height="9.699999999999989" fill="rgba(34,197,94,0.6)"/><rect x="262.3" y="437.1" width="5.8" height="8.799999999999955" fill="rgba(34,197,94,0.6)"/><rect x="274.8" y="438.5" width="5.8" height="7.399999999999977" fill="rgba(34,197,94,0.6)"/><rect x="287.4" y="441.3" width="5.8" height="4.599999999999966" fill="rgba(34,197,94,0.6)"/><rect x="299.9" y="444.2" width="5.8" height="1.6999999999999886" fill="rgba(34,197,94,0.6)"/><rect x="312.4" y="445.9" width="5.8" height="3.8000000000000114" fill="rgba(239,68,68,0.6)"/><rect x="325" y="445.9" width="5.8" height="6.2000000000000455" fill="rgba(239,68,68,0.6)"/><rect x="337.5" y="445.9" width="5.8" height="7.5" fill="rgba(239,68,68,0.6)"/><rect x="350" y="445.9" width="5.8" height="9.100000000000023" fill="rgba(239,68,68,0.6)"/><rect x="362.6" y="445.9" width="5.8" height="10" fill="rgba(239,68,68,0.6)"/><rect x="375.1" y="445.9" width="5.8" height="12.5" fill="rgba(239,68,68,0.6)"/><rect x="387.6" y="445.9" width="5.8" height="12.5" fill="rgba(239,68,68,0.6)"/><rect x="400.2" y="445.9" width="5.8" height="12" fill="rgba(239,68,68,0.6)"/><rect x="412.7" y="445.9" width="5.8" height="10.700000000000045" fill="rgba(239,68,68,0.6)"/><rect x="425.2" y="445.9" width="5.8" height="12.900000000000034" fill="rgba(239,68,68,0.6)"/><rect x="437.8" y="445.9" width="5.8" height="13.100000000000023" fill="rgba(239,68,68,0.6)"/><rect x="450.3" y="445.9" width="5.8" height="16.700000000000045" fill="rgba(239,68,68,0.6)"/><rect x="462.8" y="445.9" width="5.8" height="19.30000000000001" fill="rgba(239,68,68,0.6)"/><rect x="475.4" y="445.9" width="5.8" height="18.30000000000001" fill="rgba(239,68,68,0.6)"/><rect x="487.9" y="445.9" width="5.8" height="18.700000000000045" fill="rgba(239,68,68,0.6)"/><rect x="500.4" y="445.9" width="5.8" height="19.400000000000034" fill="rgba(239,68,68,0.6)"/><rect x="513" y="445.9" width="5.8" height="26.700000000000045" fill="rgba(239,68,68,0.6)"/><rect x="525.5" y="445.9" width="5.8" height="23.200000000000045" fill="rgba(239,68,68,0.6)"/><rect x="538" y="445.9" width="5.8" height="20.5" fill="rgba(239,68,68,0.6)"/><rect x="550.6" y="445.9" width="5.8" height="16.30000000000001" fill="rgba(239,68,68,0.6)"/><rect x="563.1" y="445.9" width="5.8" height="13" fill="rgba(239,68,68,0.6)"/><rect x="575.6" y="445.9" width="5.8" height="11.300000000000011" fill="rgba(239,68,68,0.6)"/><rect x="588.2" y="445.9" width="5.8" height="10.900000000000034" fill="rgba(239,68,68,0.6)"/><rect x="600.7" y="445.9" width="5.8" height="10.200000000000045" fill="rgba(239,68,68,0.6)"/><rect x="613.2" y="445.9" width="5.8" height="6.7000000000000455" fill="rgba(239,68,68,0.6)"/><rect x="625.8" y="445.9" width="5.8" height="2.8000000000000114" fill="rgba(239,68,68,0.6)"/><rect x="638.3" y="445.9" width="5.8" height="1" fill="rgba(239,68,68,0.6)"/><rect x="650.8" y="443.6" width="5.8" height="2.2999999999999545" fill="rgba(34,197,94,0.6)"/><rect x="663.4" y="442.8" width="5.8" height="3.099999999999966" fill="rgba(34,197,94,0.6)"/><rect x="675.9" y="442.1" width="5.8" height="3.7999999999999545" fill="rgba(34,197,94,0.6)"/><rect x="688.4" y="440.7" width="5.8" height="5.199999999999989" fill="rgba(34,197,94,0.6)"/><rect x="701" y="438.7" width="5.8" height="7.199999999999989" fill="rgba(34,197,94,0.6)"/><rect x="713.5" y="437.3" width="5.8" height="8.599999999999966" fill="rgba(34,197,94,0.6)"/><rect x="726" y="436.8" width="5.8" height="9.099999999999966" fill="rgba(34,197,94,0.6)"/><rect x="738.6" y="438.7" width="5.8" height="7.199999999999989" fill="rgba(34,197,94,0.6)"/><rect x="751.1" y="439.8" width="5.8" height="6.099999999999966" fill="rgba(34,197,94,0.6)"/><rect x="763.6" y="437.3" width="5.8" height="8.599999999999966" fill="rgba(34,197,94,0.6)"/><rect x="776.2" y="436" width="5.8" height="9.899999999999977" fill="rgba(34,197,94,0.6)"/><rect x="788.7" y="436.4" width="5.8" height="9.5" fill="rgba(34,197,94,0.6)"/><rect x="801.2" y="435.8" width="5.8" height="10.099999999999966" fill="rgba(34,197,94,0.6)"/><rect x="813.8" y="436.5" width="5.8" height="9.399999999999977" fill="rgba(34,197,94,0.6)"/><rect x="826.3" y="434.3" width="5.8" height="11.599999999999966" fill="rgba(34,197,94,0.6)"/><rect x="838.8" y="434" width="5.8" height="11.899999999999977" fill="rgba(34,197,94,0.6)"/><path d="M 102.3,449.7 L 114.8,446.5 L 127.3,441.5 L 139.9,437.7 L 152.4,437.2 L 164.9,437 L 177.5,436.9 L 190,437 L 202.5,436.6 L 215.1,436.4 L 227.6,431.4 L 240.1,426.5 L 252.7,423.8 L 265.2,422.4 L 277.7,422 L 290.3,423.7 L 302.8,426.1 L 315.3,432.6 L 327.9,436.6 L 340.4,439.7 L 352.9,443.6 L 365.5,447.1 L 378,452.6 L 390.5,455.8 L 403.1,458.3 L 415.6,459.8 L 428.1,465.1 L 440.7,468.6 L 453.2,476.4 L 465.7,483.9 L 478.3,487.4 L 490.8,492.5 L 503.3,498 L 515.9,512.1 L 528.4,514.4 L 540.9,516.8 L 553.5,516.7 L 566,516.6 L 578.5,517.7 L 591.1,520.1 L 603.6,522 L 616.1,520.2 L 628.7,517 L 641.2,514.5 L 653.7,511.4 L 666.3,509.8 L 678.8,508.2 L 691.3,505.5 L 703.9,501.7 L 716.4,498.1 L 728.9,495.3 L 741.5,495.4 L 754,495.1 L 766.5,490.4 L 779.1,486.7 L 791.6,484.7 L 804.1,481.6 L 816.7,479.9 L 829.2,474.9 L 841.7,471.7" fill="none" stroke="#3b82f6" stroke-width="1.5"/><path d="M 102.3,455.5 L 114.8,453.7 L 127.3,451.3 L 139.9,448.5 L 152.4,446.3 L 164.9,444.4 L 177.5,442.9 L 190,441.7 L 202.5,440.7 L 215.1,439.8 L 227.6,438.2 L 240.1,435.8 L 252.7,433.4 L 265.2,431.2 L 277.7,429.4 L 290.3,428.2 L 302.8,427.8 L 315.3,428.8 L 327.9,430.3 L 340.4,432.2 L 352.9,434.5 L 365.5,437 L 378,440.1 L 390.5,443.3 L 403.1,446.3 L 415.6,449 L 428.1,452.2 L 440.7,455.5 L 453.2,459.7 L 465.7,464.5 L 478.3,469.1 L 490.8,473.8 L 503.3,478.6 L 515.9,485.3 L 528.4,491.1 L 540.9,496.3 L 553.5,500.3 L 566,503.6 L 578.5,506.4 L 591.1,509.2 L 603.6,511.7 L 616.1,513.4 L 628.7,514.1 L 641.2,514.2 L 653.7,513.6 L 666.3,512.9 L 678.8,511.9 L 691.3,510.7 L 703.9,508.9 L 716.4,506.7 L 728.9,504.4 L 741.5,502.6 L 754,501.1 L 766.5,499 L 779.1,496.5 L 791.6,494.2 L 804.1,491.6 L 816.7,489.3 L 829.2,486.4 L 841.7,483.5" fill="none" stroke="#f97316" stroke-width="1.5"/><text x="88" y="525.7" text-anchor="end" dominant-baseline="middle" fill="#9ca3af" font-size="10">-1000000</text><text x="88" y="485.8" text-anchor="end" dominant-baseline="middle" fill="#9ca3af" font-size="10">-500000</text><text x="88" y="445.9" text-anchor="end" dominant-baseline="middle" fill="#9ca3af" font-size="10">0</text><text x="100" y="424" fill="#9ca3af" font-size="10" font-weight="bold">MACD</text><line x1="146" y1="420" x2="158" y2="420" stroke="#3b82f6" stroke-width="1.5"/><text x="161" y="424" fill="#9ca3af" font-size="9">MACD</text><line x1="196" y1="420" x2="208" y2="420" stroke="#f97316" stroke-width="1.5"/><text x="211" y="424" fill="#9ca3af" font-size="9">Signal</text><line x1="96" y1="412" x2="96" y2="532" stroke="#4b5563" stroke-width="1"/><rect x="96" y="556" width="752" height="120" fill="rgba(255,255,255,0.02)"/><line x1="96" y1="556" x2="848" y2="556" stroke="#374151" stroke-width="0.5"/><rect x="96" y="556" width="752" height="36" fill="rgba(239,68,68,0.06)"/><rect x="96" y="640" width="752" height="36" fill="rgba(34,197,94,0.06)"/><line x1="96" y1="592" x2="848" y2="592" stroke="#ef4444" stroke-width="0.5" stroke-dasharray="2 2"/><line x1="96" y1="616" x2="848" y2="616" stroke="#4b5563" stroke-width="0.5" stroke-dasharray="4 4"/><line x1="96" y1="640" x2="848" y2="640" stroke="#22c55e" stroke-width="0.5" stroke-dasharray="2 2"/><path d="M 102.3,609.4 L 114.8,605.2 L 127.3,597.2 L 139.9,597.6 L 152.4,609.4 L 164.9,610.1 L 177.5,609.5 L 190,610 L 202.5,607.8 L 215.1,607.5 L 227.6,591.7 L 240.1,588.8 L 252.7,594.5 L 265.2,597 L 277.7,599 L 290.3,608.1 L 302.8,611.7 L 315.3,627.1 L 327.9,622.2 L 340.4,622 L 352.9,626.3 L 365.5,627.3 L 378,635.2 L 390.5,630.2 L 403.1,630.7 L 415.6,628.7 L 428.1,639.5 L 440.7,637.5 L 453.2,646.7 L 465.7,648.9 L 478.3,641.1 L 490.8,645.2 L 503.3,647.9 L 515.9,656.7 L 528.4,635.9 L 540.9,637.3 L 553.5,634.7 L 566,635.8 L 578.5,638.1 L 591.1,640.7 L 603.6,641.8 L 616.1,635.2 L 628.7,632.7 L 641.2,633.9 L 653.7,633.1 L 666.3,635.5 L 678.8,636 L 691.3,633.9 L 703.9,630.4 L 716.4,630.5 L 728.9,631.9 L 741.5,637.5 L 754,637.7 L 766.5,624.2 L 779.1,625.3 L 791.6,628.5 L 804.1,625 L 816.7,627.6 L 829.2,617.3 L 841.7,619.9" fill="none" stroke="#a78bfa" stroke-width="1.5"/><text x="88" y="676" text-anchor="end" dominant-baseline="middle" fill="#9ca3af" font-size="10">0</text><text x="88" y="640" text-anchor="end" dominant-baseline="middle" fill="#9ca3af" font-size="10">30</text><text x="88" y="616" text-anchor="end" dominant-baseline="middle" fill="#9ca3af" font-size="10">50</text><text x="88" y="592" text-anchor="end" dominant-baseline="middle" fill="#9ca3af" font-size="10">70</text><text x="88" y="556" text-anchor="end" dominant-baseline="middle" fill="#9ca3af" font-size="10">100</text><text x="100" y="568" fill="#9ca3af" font-size="10" font-weight="bold">RSI (14)</text><line x1="96" y1="556" x2="96" y2="676" stroke="#4b5563" stroke-width="1"/><rect x="96" y="700" width="752" height="120" fill="rgba(255,255,255,0.02)"/><line x1="96" y1="700" x2="848" y2="700" stroke="#374151" stroke-width="0.5"/><rect x="98.2" y="803.8" width="8.3" height="16.200000000000045" fill="rgba(34,197,94,0.5)"/><rect x="110.7" y="805.1" width="8.3" height="14.899999999999977" fill="rgba(34,197,94,0.5)"/><rect x="123.2" y="786.2" width="8.3" height="33.799999999999955" fill="rgba(34,197,94,0.5)"/><rect x="135.8" y="792.2" width="8.3" height="27.799999999999955" fill="rgba(239,68,68,0.5)"/><rect x="148.3" y="797" width="8.3" height="23" fill="rgba(239,68,68,0.5)"/><rect x="160.8" y="799" width="8.3" height="21" fill="rgba(239,68,68,0.5)"/><rect x="173.4" y="800.2" width="8.3" height="19.799999999999955" fill="rgba(34,197,94,0.5)"/><rect x="185.9" y="816.5" width="8.3" height="3.5" fill="rgba(239,68,68,0.5)"/><rect x="198.4" y="812.9" width="8.3" height="7.100000000000023" fill="rgba(34,197,94,0.5)"/><rect x="211" y="795.6" width="8.3" height="24.399999999999977" fill="rgba(34,197,94,0.5)"/><rect x="223.5" y="789.8" width="8.3" height="30.200000000000045" fill="rgba(34,197,94,0.5)"/><rect x="236" y="788.8" width="8.3" height="31.200000000000045" fill="rgba(34,197,94,0.5)"/><rect x="248.6" y="797.1" width="8.3" height="22.899999999999977" fill="rgba(239,68,68,0.5)"/><rect x="261.1" y="803" width="8.3" height="17" fill="rgba(239,68,68,0.5)"/><rect x="273.6" y="816" width="8.3" height="4" fill="rgba(239,68,68,0.5)"/><rect x="286.2" y="809.7" width="8.3" height="10.299999999999955" fill="rgba(239,68,68,0.5)"/><rect x="298.7" y="799.6" width="8.3" height="20.399999999999977" fill="rgba(239,68,68,0.5)"/><rect x="311.2" y="783.5" width="8.3" height="36.5" fill="rgba(239,68,68,0.5)"/><rect x="323.8" y="791.1" width="8.3" height="28.899999999999977" fill="rgba(34,197,94,0.5)"/><rect x="336.3" y="804" width="8.3" height="16" fill="rgba(34,197,94,0.5)"/><rect x="348.8" y="795" width="8.3" height="25" fill="rgba(239,68,68,0.5)"/><rect x="361.4" y="814.3" width="8.3" height="5.7000000000000455" fill="rgba(239,68,68,0.5)"/><rect x="373.9" y="788.8" width="8.3" height="31.200000000000045" fill="rgba(239,68,68,0.5)"/><rect x="386.4" y="798.2" width="8.3" height="21.799999999999955" fill="rgba(34,197,94,0.5)"/><rect x="399" y="801.8" width="8.3" height="18.200000000000045" fill="rgba(239,68,68,0.5)"/><rect x="411.5" y="805" width="8.3" height="15" fill="rgba(34,197,94,0.5)"/><rect x="424" y="786.3" width="8.3" height="33.700000000000045" fill="rgba(239,68,68,0.5)"/><rect x="436.6" y="783.6" width="8.3" height="36.39999999999998" fill="rgba(34,197,94,0.5)"/><rect x="449.1" y="767.4" width="8.3" height="52.60000000000002" fill="rgba(239,68,68,0.5)"/><rect x="461.6" y="780.8" width="8.3" height="39.200000000000045" fill="rgba(239,68,68,0.5)"/><rect x="474.2" y="771.4" width="8.3" height="48.60000000000002" fill="rgba(34,197,94,0.5)"/><rect x="486.7" y="780.6" width="8.3" height="39.39999999999998" fill="rgba(239,68,68,0.5)"/><rect x="499.2" y="781.7" width="8.3" height="38.299999999999955" fill="rgba(239,68,68,0.5)"/><rect x="511.8" y="700" width="8.3" height="120" fill="rgba(239,68,68,0.5)"/><rect x="524.3" y="703.1" width="8.3" height="116.89999999999998" fill="rgba(34,197,94,0.5)"/><rect x="536.8" y="775.3" width="8.3" height="44.700000000000045" fill="rgba(239,68,68,0.5)"/><rect x="549.4" y="788.8" width="8.3" height="31.200000000000045" fill="rgba(34,197,94,0.5)"/><rect x="561.9" y="783.1" width="8.3" height="36.89999999999998" fill="rgba(239,68,68,0.5)"/><rect x="574.4" y="789.8" width="8.3" height="30.200000000000045" fill="rgba(239,68,68,0.5)"/><rect x="587" y="771.9" width="8.3" height="48.10000000000002" fill="rgba(239,68,68,0.5)"/><rect x="599.5" y="784.6" width="8.3" height="35.39999999999998" fill="rgba(239,68,68,0.5)"/><rect x="612" y="793.4" width="8.3" height="26.600000000000023" fill="rgba(34,197,94,0.5)"/><rect x="624.6" y="799.4" width="8.3" height="20.600000000000023" fill="rgba(34,197,94,0.5)"/><rect x="637.1" y="796.3" width="8.3" height="23.700000000000045" fill="rgba(239,68,68,0.5)"/><rect x="649.6" y="799.6" width="8.3" height="20.399999999999977" fill="rgba(34,197,94,0.5)"/><rect x="662.2" y="798.7" width="8.3" height="21.299999999999955" fill="rgba(239,68,68,0.5)"/><rect x="674.7" y="799.8" width="8.3" height="20.200000000000045" fill="rgba(239,68,68,0.5)"/><rect x="687.2" y="804.9" width="8.3" height="15.100000000000023" fill="rgba(34,197,94,0.5)"/><rect x="699.8" y="792.9" width="8.3" height="27.100000000000023" fill="rgba(34,197,94,0.5)"/><rect x="712.3" y="811.8" width="8.3" height="8.200000000000045" fill="rgba(239,68,68,0.5)"/><rect x="724.8" y="811.3" width="8.3" height="8.700000000000045" fill="rgba(239,68,68,0.5)"/><rect x="737.4" y="774.7" width="8.3" height="45.299999999999955" fill="rgba(239,68,68,0.5)"/><rect x="749.9" y="778.6" width="8.3" height="41.39999999999998" fill="rgba(239,68,68,0.5)"/><rect x="762.4" y="769.7" width="8.3" height="50.299999999999955" fill="rgba(34,197,94,0.5)"/><rect x="775" y="792.8" width="8.3" height="27.200000000000045" fill="rgba(239,68,68,0.5)"/><rect x="787.5" y="791.2" width="8.3" height="28.799999999999955" fill="rgba(239,68,68,0.5)"/><rect x="800" y="778.4" width="8.3" height="41.60000000000002" fill="rgba(34,197,94,0.5)"/><rect x="812.6" y="794" width="8.3" height="26" fill="rgba(239,68,68,0.5)"/><rect x="825.1" y="785.3" width="8.3" height="34.700000000000045" fill="rgba(34,197,94,0.5)"/><rect x="837.6" y="810.9" width="8.3" height="9.100000000000023" fill="rgba(239,68,68,0.5)"/><text x="88" y="820" text-anchor="end" dominant-baseline="middle" fill="#9ca3af" font-size="10">0</text><text x="88" y="754.7" text-anchor="end" dominant-baseline="middle" fill="#9ca3af" font-size="10">500</text><text x="100" y="712" fill="#9ca3af" font-size="10" font-weight="bold">Volume</text><line x1="96" y1="700" x2="96" y2="820" stroke="#4b5563" stroke-width="1"/></g></svg> 