 <svg width="860" height="852" viewBox="0 0 860 852" preserveAspectRatio="xMidYMid meet" xmlns="http://www.w3.org/2000/svg" style="background-color: #1f2937; color: #e5e7eb; font-family: sans-serif; max-width: 100%; height: auto;"><title>BTC/JPY 1day chart</title><style>.u{fill:#16a34a}.d{fill:#ef4444}.w{stroke:#9ca3af;stroke-width:1}</style><defs><clipPath id="plotArea"><rect x="96" y="36" width="752" height="352"/></clipPath></defs><g class="axes"><line x1="96" y1="36" x2="96" y2="388" stroke="#4b5563" stroke-width="1"/><g font-size="12" fill="#9ca3af"><text x="88" y="388" text-anchor="end" dominant-baseline="middle">9,000,000</text><text x="88" y="337.7" text-anchor="end" dominant-baseline="middle">10,000,000</text><text x="88" y="287.4" text-anchor="end" dominant-baseline="middle">11,000,000</text><text x="88" y="237.1" text-anchor="end" dominant-baseline="middle">12,000,000</text><text x="88" y="186.9" text-anchor="end" dominant-baseline="middle">13,000,000</text><text x="88" y="136.6" text-anchor="end" dominant-baseline="middle">14,000,000</text><text x="88" y="86.3" text-anchor="end" dominant-baseline="middle">15,000,000</text><text x="88" y="36" text-anchor="end" dominant-baseline="middle">16,000,000</text></g><line x1="96" y1="388" x2="848" y2="388" stroke="#4b5563" stroke-width="1"/><line x1="96" y1="820" x2="848" y2="820" stroke="#4b5563" stroke-width="1"/><g font-size="12" fill="#9ca3af"><text x="102.3" y="836" text-anchor="middle" fill="#9ca3af" font-size="10">1/3</text><text x="252.7" y="836" text-anchor="middle" fill="#9ca3af" font-size="10">1/15</text><text x="403.1" y="836" text-anchor="middle" fill="#9ca3af" font-size="10">1/27</text><text x="553.5" y="836" text-anchor="middle" fill="#9ca3af" font-size="10">2/8</text><text x="703.9" y="836" text-anchor="middle" fill="#9ca3af" font-size="10">2/20</text></g></g><g class="plot-area" clip-path="url(#plotArea)"><line x1="102.3" y1="129.3" x2="102.3" y2="138.4" class="w"/><line x1="114.8" y1="119.3" x2="114.8" y2="129.5" class="w"/><line x1="127.3" y1="96.3" x2="127.3" y2="120.6" class="w"/><line x1="139.9" y1="97.4" x2="139.9" y2="120.5" class="w"/><line x1="152.4" y1="101.4" x2="152.4" y2="125.8" class="w"/><line x1="164.9" y1="117.6" x2="164.9" y2="135" class="w"/><line x1="177.5" y1="108.9" x2="177.5" y2="128.5" class="w"/><line x1="190" y1="119.1" x2="190" y2="121.5" class="w"/><line x1="202.5" y1="115.8" x2="202.5" y2="122.7" class="w"/><line x1="215.1" y1="105.7" x2="215.1" y2="125.3" class="w"/><line x1="227.6" y1="72.7" x2="227.6" y2="116.4" class="w"/><line x1="240.1" y1="60.1" x2="240.1" y2="85.6" class="w"/><line x1="252.7" y1="63.5" x2="252.7" y2="80.6" class="w"/><line x1="265.2" y1="74.8" x2="265.2" y2="89.7" class="w"/><line x1="277.7" y1="78.8" x2="277.7" y2="83" class="w"/><line x1="290.3" y1="81.3" x2="290.3" y2="97.3" class="w"/><line x1="302.8" y1="96.9" x2="302.8" y2="109.5" class="w"/><line x1="315.3" y1="101.7" x2="315.3" y2="141.5" class="w"/><line x1="327.9" y1="119.6" x2="327.9" y2="145.5" class="w"/><line x1="340.4" y1="119" x2="340.4" y2="135" class="w"/><line x1="352.9" y1="121.9" x2="352.9" y2="139.6" class="w"/><line x1="365.5" y1="135.5" x2="365.5" y2="141.1" class="w"/><line x1="378" y1="140.4" x2="378" y2="170.8" class="w"/><line x1="390.5" y1="151.6" x2="390.5" y2="166.3" class="w"/><line x1="403.1" y1="149.3" x2="403.1" y2="169.6" class="w"/><line x1="415.6" y1="141.2" x2="415.6" y2="158.4" class="w"/><line x1="428.1" y1="152.2" x2="428.1" y2="197.6" class="w"/><line x1="440.7" y1="182.5" x2="440.7" y2="212" class="w"/><line x1="453.2" y1="183.8" x2="453.2" y2="244.7" class="w"/><line x1="465.7" y1="220.8" x2="465.7" y2="248.2" class="w"/><line x1="478.3" y1="219" x2="478.3" y2="258.1" class="w"/><line x1="490.8" y1="212" x2="490.8" y2="267.4" class="w"/><line x1="503.3" y1="235.2" x2="503.3" y2="273.3" class="w"/><line x1="515.9" y1="261.8" x2="515.9" y2="347" class="w"/><line x1="528.4" y1="272.3" x2="528.4" y2="367.9" class="w"/><line x1="540.9" y1="272.9" x2="540.9" y2="307.3" class="w"/><line x1="553.5" y1="266.8" x2="553.5" y2="295" class="w"/><line x1="566" y1="276.7" x2="566" y2="305.5" class="w"/><line x1="578.5" y1="287.4" x2="578.5" y2="313.3" class="w"/><line x1="591.1" y1="302.6" x2="591.1" y2="332.8" class="w"/><line x1="603.6" y1="312.5" x2="603.6" y2="339.1" class="w"/><line x1="616.1" y1="305.7" x2="616.1" y2="333.6" class="w"/><line x1="628.7" y1="297.3" x2="628.7" y2="311.7" class="w"/><line x1="641.2" y1="294.3" x2="641.2" y2="317.1" class="w"/><line x1="653.7" y1="298.9" x2="653.7" y2="320.6" class="w"/><line x1="666.3" y1="306.7" x2="666.3" y2="325.1" class="w"/><line x1="678.8" y1="309.6" x2="678.8" y2="326.7" class="w"/><line x1="691.3" y1="314.8" x2="691.3" y2="327.6" class="w"/><line x1="703.9" y1="302.5" x2="703.9" y2="321.1" class="w"/><line x1="716.4" y1="304.3" x2="716.4" y2="312.6" class="w"/><line x1="728.9" y1="307.8" x2="728.9" y2="316" class="w"/><line x1="741.5" y1="314.4" x2="741.5" y2="342.7" class="w"/><line x1="754" y1="333.2" x2="754" y2="350.2" class="w"/><line x1="766.5" y1="288.9" x2="766.5" y2="338.7" class="w"/><line x1="779.1" y1="299.6" x2="779.1" y2="317.7" class="w"/><line x1="791.6" y1="304.1" x2="791.6" y2="330.2" class="w"/><line x1="804.1" y1="307.5" x2="804.1" y2="343.7" class="w"/><line x1="816.7" y1="304.9" x2="816.7" y2="329.3" class="w"/><line x1="829.2" y1="286.6" x2="829.2" y2="323.1" class="w"/><line x1="841.7" y1="293.5" x2="841.7" y2="306.4" class="w"/><rect x="98.2" y="129.5" width="8.3" height="4.6" class="u"/><rect x="110.7" y="120.7" width="8.3" height="8.8" class="u"/><rect x="123.2" y="100.9" width="8.3" height="19.7" class="u"/><rect x="135.8" y="100.9" width="8.3" height="1" class="d"/><rect x="148.3" y="101.4" width="8.3" height="18.8" class="d"/><rect x="160.8" y="120.2" width="8.3" height="1.3" class="d"/><rect x="173.4" y="120.3" width="8.3" height="1.2" class="u"/><rect x="185.9" y="120.3" width="8.3" height="1" class="d"/><rect x="198.4" y="117" width="8.3" height="4.1" class="u"/><rect x="211" y="116.4" width="8.3" height="1" class="u"/><rect x="223.5" y="78.3" width="8.3" height="38.1" class="u"/><rect x="236" y="68" width="8.3" height="10.1" class="u"/><rect x="248.6" y="68" width="8.3" height="8.1" class="d"/><rect x="261.1" y="76.1" width="8.3" height="3.7" class="d"/><rect x="273.6" y="79.8" width="8.3" height="2.9" class="d"/><rect x="286.2" y="82.7" width="8.3" height="14.2" class="d"/><rect x="298.7" y="96.9" width="8.3" height="6.3" class="d"/><rect x="311.2" y="103.2" width="8.3" height="34.4" class="d"/><rect x="323.8" y="127.8" width="8.3" height="9.8" class="u"/><rect x="336.3" y="127.5" width="8.3" height="1" class="u"/><rect x="348.8" y="127.5" width="8.3" height="10.6" class="d"/><rect x="361.4" y="138.1" width="8.3" height="2.6" class="d"/><rect x="373.9" y="140.7" width="8.3" height="23" class="d"/><rect x="386.4" y="154.8" width="8.3" height="8.9" class="u"/><rect x="399" y="154.8" width="8.3" height="1.4" class="d"/><rect x="411.5" y="152.9" width="8.3" height="3.3" class="u"/><rect x="424" y="152.9" width="8.3" height="34.5" class="d"/><rect x="436.6" y="183.8" width="8.3" height="3.6" class="u"/><rect x="449.1" y="183.8" width="8.3" height="42.3" class="d"/><rect x="461.6" y="225.8" width="8.3" height="13.4" class="d"/><rect x="474.2" y="224.3" width="8.3" height="14.9" class="u"/><rect x="486.7" y="224.3" width="8.3" height="22.1" class="d"/><rect x="499.2" y="246.4" width="8.3" height="16.5" class="d"/><rect x="511.8" y="262.9" width="8.3" height="81.4" class="d"/><rect x="524.3" y="281.5" width="8.3" height="62.7" class="u"/><rect x="536.8" y="281.5" width="8.3" height="10.6" class="d"/><rect x="549.4" y="283.2" width="8.3" height="8.9" class="u"/><rect x="561.9" y="283.2" width="8.3" height="6.6" class="d"/><rect x="574.4" y="289.6" width="8.3" height="15.4" class="d"/><rect x="587" y="305" width="8.3" height="18.2" class="d"/><rect x="599.5" y="323.1" width="8.3" height="7.6" class="d"/><rect x="612" y="311.3" width="8.3" height="19.4" class="u"/><rect x="624.6" y="303.7" width="8.3" height="7.6" class="u"/><rect x="637.1" y="303.7" width="8.3" height="6.6" class="d"/><rect x="649.6" y="307.9" width="8.3" height="2.6" class="u"/><rect x="662.2" y="307.9" width="8.3" height="12.2" class="d"/><rect x="674.7" y="320.1" width="8.3" height="2.5" class="d"/><rect x="687.2" y="317.6" width="8.3" height="4.9" class="u"/><rect x="699.8" y="309.3" width="8.3" height="8.3" class="u"/><rect x="712.3" y="309.2" width="8.3" height="1" class="d"/><rect x="724.8" y="309.5" width="8.3" height="5" class="d"/><rect x="737.4" y="314.5" width="8.3" height="22.4" class="d"/><rect x="749.9" y="336.9" width="8.3" height="1" class="d"/><rect x="762.4" y="307.6" width="8.3" height="30.3" class="u"/><rect x="775" y="307.5" width="8.3" height="3.6" class="d"/><rect x="787.5" y="311" width="8.3" height="11" class="d"/><rect x="800" y="313.8" width="8.3" height="8.2" class="u"/><rect x="812.6" y="313.9" width="8.3" height="8.5" class="d"/><rect x="825.1" y="296.6" width="8.3" height="25.5" class="u"/><rect x="837.6" y="296.5" width="8.3" height="9.9" class="d"/></g><g class="legend"><g font-size="12" fill="#e5e7eb"></g></g><g class="sub-panels"><rect x="96" y="412" width="752" height="120" fill="rgba(255,255,255,0.02)"/><line x1="96" y1="412" x2="848" y2="412" stroke="#374151" stroke-width="0.5"/><line x1="96" y1="458.8" x2="848" y2="458.8" stroke="#4b5563" stroke-width="0.5" stroke-dasharray="4 4"/><rect x="99.4" y="453.8" width="5.8" height="5" fill="rgba(34,197,94,0.6)"/><rect x="111.9" y="452.7" width="5.8" height="6.100000000000023" fill="rgba(34,197,94,0.6)"/><rect x="124.4" y="450.5" width="5.8" height="8.300000000000011" fill="rgba(34,197,94,0.6)"/><rect x="137" y="449.5" width="5.8" height="9.300000000000011" fill="rgba(34,197,94,0.6)"/><rect x="149.5" y="451" width="5.8" height="7.800000000000011" fill="rgba(34,197,94,0.6)"/><rect x="162" y="452.5" width="5.8" height="6.300000000000011" fill="rgba(34,197,94,0.6)"/><rect x="174.6" y="453.6" width="5.8" height="5.199999999999989" fill="rgba(34,197,94,0.6)"/><rect x="187.1" y="454.7" width="5.8" height="4.100000000000023" fill="rgba(34,197,94,0.6)"/><rect x="199.6" y="455.3" width="5.8" height="3.5" fill="rgba(34,197,94,0.6)"/><rect x="212.2" y="455.8" width="5.8" height="3" fill="rgba(34,197,94,0.6)"/><rect x="224.7" y="453.1" width="5.8" height="5.699999999999989" fill="rgba(34,197,94,0.6)"/><rect x="237.2" y="450.8" width="5.8" height="8" fill="rgba(34,197,94,0.6)"/><rect x="249.8" y="450.6" width="5.8" height="8.199999999999989" fill="rgba(34,197,94,0.6)"/><rect x="262.3" y="451.3" width="5.8" height="7.5" fill="rgba(34,197,94,0.6)"/><rect x="274.8" y="452.5" width="5.8" height="6.300000000000011" fill="rgba(34,197,94,0.6)"/><rect x="287.4" y="454.9" width="5.8" height="3.900000000000034" fill="rgba(34,197,94,0.6)"/><rect x="299.9" y="457.3" width="5.8" height="1.5" fill="rgba(34,197,94,0.6)"/><rect x="312.4" y="458.8" width="5.8" height="3.1999999999999886" fill="rgba(239,68,68,0.6)"/><rect x="325" y="458.8" width="5.8" height="5.300000000000011" fill="rgba(239,68,68,0.6)"/><rect x="337.5" y="458.8" width="5.8" height="6.399999999999977" fill="rgba(239,68,68,0.6)"/><rect x="350" y="458.8" width="5.8" height="7.800000000000011" fill="rgba(239,68,68,0.6)"/><rect x="362.6" y="458.8" width="5.8" height="8.5" fill="rgba(239,68,68,0.6)"/><rect x="375.1" y="458.8" width="5.8" height="10.599999999999966" fill="rgba(239,68,68,0.6)"/><rect x="387.6" y="458.8" width="5.8" height="10.599999999999966" fill="rgba(239,68,68,0.6)"/><rect x="400.2" y="458.8" width="5.8" height="10.199999999999989" fill="rgba(239,68,68,0.6)"/><rect x="412.7" y="458.8" width="5.8" height="9.099999999999966" fill="rgba(239,68,68,0.6)"/><rect x="425.2" y="458.8" width="5.8" height="10.899999999999977" fill="rgba(239,68,68,0.6)"/><rect x="437.8" y="458.8" width="5.8" height="11.099999999999966" fill="rgba(239,68,68,0.6)"/><rect x="450.3" y="458.8" width="5.8" height="14.199999999999989" fill="rgba(239,68,68,0.6)"/><rect x="462.8" y="458.8" width="5.8" height="16.5" fill="rgba(239,68,68,0.6)"/><rect x="475.4" y="458.8" width="5.8" height="15.5" fill="rgba(239,68,68,0.6)"/><rect x="487.9" y="458.8" width="5.8" height="15.899999999999977" fill="rgba(239,68,68,0.6)"/><rect x="500.4" y="458.8" width="5.8" height="16.5" fill="rgba(239,68,68,0.6)"/><rect x="513" y="458.8" width="5.8" height="22.69999999999999" fill="rgba(239,68,68,0.6)"/><rect x="525.5" y="458.8" width="5.8" height="19.69999999999999" fill="rgba(239,68,68,0.6)"/><rect x="538" y="458.8" width="5.8" height="17.399999999999977" fill="rgba(239,68,68,0.6)"/><rect x="550.6" y="458.8" width="5.8" height="13.899999999999977" fill="rgba(239,68,68,0.6)"/><rect x="563.1" y="458.8" width="5.8" height="11.099999999999966" fill="rgba(239,68,68,0.6)"/><rect x="575.6" y="458.8" width="5.8" height="9.599999999999966" fill="rgba(239,68,68,0.6)"/><rect x="588.2" y="458.8" width="5.8" height="9.300000000000011" fill="rgba(239,68,68,0.6)"/><rect x="600.7" y="458.8" width="5.8" height="8.699999999999989" fill="rgba(239,68,68,0.6)"/><rect x="613.2" y="458.8" width="5.8" height="5.699999999999989" fill="rgba(239,68,68,0.6)"/><rect x="625.8" y="458.8" width="5.8" height="2.3999999999999773" fill="rgba(239,68,68,0.6)"/><rect x="638.3" y="458.8" width="5.8" height="1" fill="rgba(239,68,68,0.6)"/><rect x="650.8" y="456.9" width="5.8" height="1.900000000000034" fill="rgba(34,197,94,0.6)"/><rect x="663.4" y="456.2" width="5.8" height="2.6000000000000227" fill="rgba(34,197,94,0.6)"/><rect x="675.9" y="455.6" width="5.8" height="3.1999999999999886" fill="rgba(34,197,94,0.6)"/><rect x="688.4" y="454.4" width="5.8" height="4.400000000000034" fill="rgba(34,197,94,0.6)"/><rect x="701" y="452.7" width="5.8" height="6.100000000000023" fill="rgba(34,197,94,0.6)"/><rect x="713.5" y="451.5" width="5.8" height="7.300000000000011" fill="rgba(34,197,94,0.6)"/><rect x="726" y="451" width="5.8" height="7.800000000000011" fill="rgba(34,197,94,0.6)"/><rect x="738.6" y="452.7" width="5.8" height="6.100000000000023" fill="rgba(34,197,94,0.6)"/><rect x="751.1" y="453.6" width="5.8" height="5.199999999999989" fill="rgba(34,197,94,0.6)"/><rect x="763.6" y="451.5" width="5.8" height="7.300000000000011" fill="rgba(34,197,94,0.6)"/><rect x="776.2" y="450.4" width="5.8" height="8.400000000000034" fill="rgba(34,197,94,0.6)"/><rect x="788.7" y="450.7" width="5.8" height="8.100000000000023" fill="rgba(34,197,94,0.6)"/><rect x="801.2" y="450.3" width="5.8" height="8.5" fill="rgba(34,197,94,0.6)"/><rect x="813.8" y="450.8" width="5.8" height="8" fill="rgba(34,197,94,0.6)"/><rect x="826.3" y="449" width="5.8" height="9.800000000000011" fill="rgba(34,197,94,0.6)"/><rect x="838.8" y="448.9" width="5.8" height="9.900000000000034" fill="rgba(34,197,94,0.6)"/><path d="M 102.3,462 L 114.8,459.3 L 127.3,455.1 L 139.9,451.8 L 152.4,451.4 L 164.9,451.3 L 177.5,451.2 L 190,451.2 L 202.5,450.9 L 215.1,450.7 L 227.6,446.5 L 240.1,442.3 L 252.7,440 L 265.2,438.9 L 277.7,438.5 L 290.3,440 L 302.8,442 L 315.3,447.5 L 327.9,450.9 L 340.4,453.6 L 352.9,456.9 L 365.5,459.8 L 378,464.5 L 390.5,467.2 L 403.1,469.4 L 415.6,470.6 L 428.1,475.1 L 440.7,478.1 L 453.2,484.8 L 465.7,491.1 L 478.3,494.1 L 490.8,498.4 L 503.3,503.1 L 515.9,515.1 L 528.4,517 L 540.9,519 L 553.5,519 L 566,518.9 L 578.5,519.9 L 591.1,521.9 L 603.6,523.5 L 616.1,522 L 628.7,519.2 L 641.2,517.1 L 653.7,514.5 L 666.3,513.2 L 678.8,511.7 L 691.3,509.5 L 703.9,506.3 L 716.4,503.2 L 728.9,500.8 L 741.5,500.9 L 754,500.6 L 766.5,496.6 L 779.1,493.5 L 791.6,491.8 L 804.1,489.2 L 816.7,487.7 L 829.2,483.5 L 841.7,480.9" fill="none" stroke="#3b82f6" stroke-width="1.5"/><path d="M 102.3,467 L 114.8,465.5 L 127.3,463.4 L 139.9,461.1 L 152.4,459.1 L 164.9,457.6 L 177.5,456.3 L 190,455.3 L 202.5,454.4 L 215.1,453.7 L 227.6,452.2 L 240.1,450.2 L 252.7,448.2 L 265.2,446.3 L 277.7,444.8 L 290.3,443.8 L 302.8,443.4 L 315.3,444.3 L 327.9,445.6 L 340.4,447.2 L 352.9,449.1 L 365.5,451.3 L 378,453.9 L 390.5,456.6 L 403.1,459.1 L 415.6,461.4 L 428.1,464.2 L 440.7,467 L 453.2,470.5 L 465.7,474.6 L 478.3,478.5 L 490.8,482.5 L 503.3,486.6 L 515.9,492.3 L 528.4,497.3 L 540.9,501.6 L 553.5,505.1 L 566,507.9 L 578.5,510.3 L 591.1,512.6 L 603.6,514.8 L 616.1,516.2 L 628.7,516.8 L 641.2,516.9 L 653.7,516.4 L 666.3,515.7 L 678.8,514.9 L 691.3,513.9 L 703.9,512.3 L 716.4,510.5 L 728.9,508.6 L 741.5,507 L 754,505.8 L 766.5,503.9 L 779.1,501.8 L 791.6,499.8 L 804.1,497.7 L 816.7,495.7 L 829.2,493.3 L 841.7,490.8" fill="none" stroke="#f97316" stroke-width="1.5"/><text x="88" y="526.6" text-anchor="end" dominant-baseline="middle" fill="#9ca3af" font-size="10">-1000000</text><text x="88" y="492.7" text-anchor="end" dominant-baseline="middle" fill="#9ca3af" font-size="10">-500000</text><text x="88" y="458.8" text-anchor="end" dominant-baseline="middle" fill="#9ca3af" font-size="10">0</text><text x="100" y="424" fill="#9ca3af" font-size="10" font-weight="bold">MACD</text><line x1="146" y1="420" x2="158" y2="420" stroke="#3b82f6" stroke-width="1.5"/><text x="161" y="424" fill="#9ca3af" font-size="9">MACD</text><line x1="196" y1="420" x2="208" y2="420" stroke="#f97316" stroke-width="1.5"/><text x="211" y="424" fill="#9ca3af" font-size="9">Signal</text><line x1="96" y1="412" x2="96" y2="532" stroke="#4b5563" stroke-width="1"/><rect x="96" y="556" width="752" height="120" fill="rgba(255,255,255,0.02)"/><line x1="96" y1="556" x2="848" y2="556" stroke="#374151" stroke-width="0.5"/><rect x="96" y="574" width="752" height="30.600000000000023" fill="rgba(239,68,68,0.06)"/><rect x="96" y="645.4" width="752" height="30.600000000000023" fill="rgba(34,197,94,0.06)"/><line x1="96" y1="604.6" x2="848" y2="604.6" stroke="#ef4444" stroke-width="0.5" stroke-dasharray="2 2"/><line x1="96" y1="625" x2="848" y2="625" stroke="#4b5563" stroke-width="0.5" stroke-dasharray="4 4"/><line x1="96" y1="645.4" x2="848" y2="645.4" stroke="#22c55e" stroke-width="0.5" stroke-dasharray="2 2"/><path d="M 102.3,619.4 L 114.8,615.8 L 127.3,609.1 L 139.9,609.3 L 152.4,619.4 L 164.9,620 L 177.5,619.5 L 190,619.9 L 202.5,618 L 215.1,617.8 L 227.6,604.4 L 240.1,601.9 L 252.7,606.7 L 265.2,608.8 L 277.7,610.5 L 290.3,618.3 L 302.8,621.3 L 315.3,634.4 L 327.9,630.3 L 340.4,630.1 L 352.9,633.8 L 365.5,634.6 L 378,641.4 L 390.5,637.1 L 403.1,637.5 L 415.6,635.8 L 428.1,645 L 440.7,643.2 L 453.2,651.1 L 465.7,653 L 478.3,646.4 L 490.8,649.8 L 503.3,652.1 L 515.9,659.6 L 528.4,641.9 L 540.9,643.1 L 553.5,640.9 L 566,641.8 L 578.5,643.8 L 591.1,646 L 603.6,646.9 L 616.1,641.3 L 628.7,639.2 L 641.2,640.2 L 653.7,639.5 L 666.3,641.6 L 678.8,642 L 691.3,640.2 L 703.9,637.3 L 716.4,637.3 L 728.9,638.5 L 741.5,643.3 L 754,643.5 L 766.5,632 L 779.1,632.9 L 791.6,635.6 L 804.1,632.6 L 816.7,634.9 L 829.2,626.1 L 841.7,628.9" fill="none" stroke="#a78bfa" stroke-width="1.5"/><text x="88" y="676" text-anchor="end" dominant-baseline="middle" fill="#9ca3af" font-size="10">0</text><text x="88" y="645.4" text-anchor="end" dominant-baseline="middle" fill="#9ca3af" font-size="10">30</text><text x="88" y="625" text-anchor="end" dominant-baseline="middle" fill="#9ca3af" font-size="10">50</text><text x="88" y="604.6" text-anchor="end" dominant-baseline="middle" fill="#9ca3af" font-size="10">70</text><text x="88" y="574" text-anchor="end" dominant-baseline="middle" fill="#9ca3af" font-size="10">100</text><text x="100" y="568" fill="#9ca3af" font-size="10" font-weight="bold">RSI (14)</text><line x1="96" y1="556" x2="96" y2="676" stroke="#4b5563" stroke-width="1"/><rect x="96" y="700" width="752" height="120" fill="rgba(255,255,255,0.02)"/><line x1="96" y1="700" x2="848" y2="700" stroke="#374151" stroke-width="0.5"/><rect x="98.2" y="806.3" width="8.3" height="13.700000000000045" fill="rgba(34,197,94,0.5)"/><rect x="110.7" y="807.3" width="8.3" height="12.700000000000045" fill="rgba(34,197,94,0.5)"/><rect x="123.2" y="791.3" width="8.3" height="28.700000000000045" fill="rgba(34,197,94,0.5)"/><rect x="135.8" y="796.4" width="8.3" height="23.600000000000023" fill="rgba(239,68,68,0.5)"/><rect x="148.3" y="800.4" width="8.3" height="19.600000000000023" fill="rgba(239,68,68,0.5)"/><rect x="160.8" y="802.2" width="8.3" height="17.799999999999955" fill="rgba(239,68,68,0.5)"/><rect x="173.4" y="803.2" width="8.3" height="16.799999999999955" fill="rgba(34,197,94,0.5)"/><rect x="185.9" y="817" width="8.3" height="3" fill="rgba(239,68,68,0.5)"/><rect x="198.4" y="813.9" width="8.3" height="6.100000000000023" fill="rgba(34,197,94,0.5)"/><rect x="211" y="799.3" width="8.3" height="20.700000000000045" fill="rgba(34,197,94,0.5)"/><rect x="223.5" y="794.3" width="8.3" height="25.700000000000045" fill="rgba(34,197,94,0.5)"/><rect x="236" y="793.5" width="8.3" height="26.5" fill="rgba(34,197,94,0.5)"/><rect x="248.6" y="800.6" width="8.3" height="19.399999999999977" fill="rgba(239,68,68,0.5)"/><rect x="261.1" y="805.6" width="8.3" height="14.399999999999977" fill="rgba(239,68,68,0.5)"/><rect x="273.6" y="816.6" width="8.3" height="3.3999999999999773" fill="rgba(239,68,68,0.5)"/><rect x="286.2" y="811.2" width="8.3" height="8.799999999999955" fill="rgba(239,68,68,0.5)"/><rect x="298.7" y="802.7" width="8.3" height="17.299999999999955" fill="rgba(239,68,68,0.5)"/><rect x="311.2" y="789" width="8.3" height="31" fill="rgba(239,68,68,0.5)"/><rect x="323.8" y="795.4" width="8.3" height="24.600000000000023" fill="rgba(34,197,94,0.5)"/><rect x="336.3" y="806.4" width="8.3" height="13.600000000000023" fill="rgba(34,197,94,0.5)"/><rect x="348.8" y="798.7" width="8.3" height="21.299999999999955" fill="rgba(239,68,68,0.5)"/><rect x="361.4" y="815.1" width="8.3" height="4.899999999999977" fill="rgba(239,68,68,0.5)"/><rect x="373.9" y="793.5" width="8.3" height="26.5" fill="rgba(239,68,68,0.5)"/><rect x="386.4" y="801.5" width="8.3" height="18.5" fill="rgba(34,197,94,0.5)"/><rect x="399" y="804.6" width="8.3" height="15.399999999999977" fill="rgba(239,68,68,0.5)"/><rect x="411.5" y="807.2" width="8.3" height="12.799999999999955" fill="rgba(34,197,94,0.5)"/><rect x="424" y="791.4" width="8.3" height="28.600000000000023" fill="rgba(239,68,68,0.5)"/><rect x="436.6" y="789.1" width="8.3" height="30.899999999999977" fill="rgba(34,197,94,0.5)"/><rect x="449.1" y="775.3" width="8.3" height="44.700000000000045" fill="rgba(239,68,68,0.5)"/><rect x="461.6" y="786.7" width="8.3" height="33.299999999999955" fill="rgba(239,68,68,0.5)"/><rect x="474.2" y="778.7" width="8.3" height="41.299999999999955" fill="rgba(34,197,94,0.5)"/><rect x="486.7" y="786.5" width="8.3" height="33.5" fill="rgba(239,68,68,0.5)"/><rect x="499.2" y="787.4" width="8.3" height="32.60000000000002" fill="rgba(239,68,68,0.5)"/><rect x="511.8" y="718" width="8.3" height="102" fill="rgba(239,68,68,0.5)"/><rect x="524.3" y="720.6" width="8.3" height="99.39999999999998" fill="rgba(34,197,94,0.5)"/><rect x="536.8" y="782" width="8.3" height="38" fill="rgba(239,68,68,0.5)"/><rect x="549.4" y="793.5" width="8.3" height="26.5" fill="rgba(34,197,94,0.5)"/><rect x="561.9" y="788.6" width="8.3" height="31.399999999999977" fill="rgba(239,68,68,0.5)"/><rect x="574.4" y="794.4" width="8.3" height="25.600000000000023" fill="rgba(239,68,68,0.5)"/><rect x="587" y="779.1" width="8.3" height="40.89999999999998" fill="rgba(239,68,68,0.5)"/><rect x="599.5" y="789.9" width="8.3" height="30.100000000000023" fill="rgba(239,68,68,0.5)"/><rect x="612" y="797.4" width="8.3" height="22.600000000000023" fill="rgba(34,197,94,0.5)"/><rect x="624.6" y="802.5" width="8.3" height="17.5" fill="rgba(34,197,94,0.5)"/><rect x="637.1" y="799.9" width="8.3" height="20.100000000000023" fill="rgba(239,68,68,0.5)"/><rect x="649.6" y="802.7" width="8.3" height="17.299999999999955" fill="rgba(34,197,94,0.5)"/><rect x="662.2" y="801.9" width="8.3" height="18.100000000000023" fill="rgba(239,68,68,0.5)"/><rect x="674.7" y="802.8" width="8.3" height="17.200000000000045" fill="rgba(239,68,68,0.5)"/><rect x="687.2" y="807.2" width="8.3" height="12.799999999999955" fill="rgba(34,197,94,0.5)"/><rect x="699.8" y="797" width="8.3" height="23" fill="rgba(34,197,94,0.5)"/><rect x="712.3" y="813" width="8.3" height="7" fill="rgba(239,68,68,0.5)"/><rect x="724.8" y="812.6" width="8.3" height="7.399999999999977" fill="rgba(239,68,68,0.5)"/><rect x="737.4" y="781.5" width="8.3" height="38.5" fill="rgba(239,68,68,0.5)"/><rect x="749.9" y="784.8" width="8.3" height="35.200000000000045" fill="rgba(239,68,68,0.5)"/><rect x="762.4" y="777.3" width="8.3" height="42.700000000000045" fill="rgba(34,197,94,0.5)"/><rect x="775" y="796.9" width="8.3" height="23.100000000000023" fill="rgba(239,68,68,0.5)"/><rect x="787.5" y="795.5" width="8.3" height="24.5" fill="rgba(239,68,68,0.5)"/><rect x="800" y="784.7" width="8.3" height="35.299999999999955" fill="rgba(34,197,94,0.5)"/><rect x="812.6" y="797.9" width="8.3" height="22.100000000000023" fill="rgba(239,68,68,0.5)"/><rect x="825.1" y="790.5" width="8.3" height="29.5" fill="rgba(34,197,94,0.5)"/><rect x="837.6" y="811.9" width="8.3" height="8.100000000000023" fill="rgba(239,68,68,0.5)"/><text x="88" y="820" text-anchor="end" dominant-baseline="middle" fill="#9ca3af" font-size="10">0</text><text x="88" y="764.5" text-anchor="end" dominant-baseline="middle" fill="#9ca3af" font-size="10">500</text><text x="100" y="712" fill="#9ca3af" font-size="10" font-weight="bold">Volume</text><line x1="96" y1="700" x2="96" y2="820" stroke="#4b5563" stroke-width="1"/></g></svg> 